<svg width="348" height="36" viewBox="0 0 348 36" fill="none" xmlns="http://www.w3.org/2000/svg">
<path d="M0 31C18 31 28.2441 5 43.6997 5" stroke="#50959E" stroke-width="8.50811"/>
<path d="M87 31C68.9999 31 58.7557 5 43.3 5" stroke="#50959E" stroke-width="8.50811"/>
<path d="M87 31C105 31 115.244 5 130.7 5" stroke="#50959E" stroke-width="8.50811"/>
<path d="M174 31C156 31 145.756 5 130.3 5" stroke="#50959E" stroke-width="8.50811"/>
<path d="M174 31C192 31 202.244 5 217.7 5" stroke="#50959E" stroke-width="8.50811"/>
<path d="M261 31C243 31 232.756 5 217.3 5" stroke="#50959E" stroke-width="8.50811"/>
<path d="M261 31C279 31 289.244 5 304.7 5" stroke="#50959E" stroke-width="8.50811"/>
<path d="M348 31C330 31 319.756 5 304.3 5" stroke="#50959E" stroke-width="8.50811"/>
</svg>
