<svg width="1048" height="1150" viewBox="0 0 1048 1150" fill="none" xmlns="http://www.w3.org/2000/svg">
<path d="M910.581 712.566C910.581 968.079 737.336 1149.63 484.177 1149.63C231.019 1149.63 27.9258 995.795 27.9258 740.282C27.9258 484.769 209.699 313.878 462.857 313.878C716.015 313.878 910.581 457.052 910.581 712.566Z" fill="#F8CDC4"/>
<g filter="url(#filter0_f)">
<path d="M430.875 591.041L492.704 546.268L533.212 582.512L601.437 635.813L661.133 678.453L714.433 704.037L797.582 731.754L861.543 755.206L865.807 806.374L891.391 846.883L897.787 821.298L910.579 772.262V704.037V642.209L897.787 591.041L878.599 546.268L853.015 497.232L818.902 456.723L786.922 422.611L748.546 392.763L686.717 358.651L624.889 333.067L567.324 320.274L507.628 311.746H445.799L377.575 320.274L313.614 333.067L273.106 350.123L196.353 392.763L130.261 443.931L66.3004 516.42L27.9241 610.229L13 706.169L27.9241 772.262L49.2443 740.282L57.7724 721.094H66.3004L300.822 642.209L377.575 618.757L430.875 591.041Z" fill="#5F3962"/>
</g>
<g filter="url(#filter1_f)">
<path d="M801.845 139.053C801.845 222.654 735.857 324.538 633.416 324.538C530.975 324.538 424.479 237.578 424.479 153.977C424.479 70.376 477.675 9 580.116 9C682.557 9 801.845 55.4519 801.845 139.053Z" fill="#603A63"/>
</g>
<g filter="url(#filter2_f)">
<path d="M477.778 226.466L507.626 269.106L548.134 262.71H588.643H609.963L635.547 271.238L656.867 279.766L671.791 292.558H680.319L695.244 284.03L714.432 279.766L735.752 275.502H750.676H774.128H797.58L829.561 279.766L848.749 284.03L876.465 292.558L902.049 303.218L919.105 313.878L938.294 326.671H957.482H983.066H1021.44L1034.23 335.199L1038.5 345.859L1029.97 352.255L1000.12 362.915L968.142 369.311L946.822 373.575L925.501 377.839H855.145L835.957 369.311L793.316 362.915L765.6 356.519L735.752 345.859H699.508H684.583L639.811 352.255L486.306 313.878L477.778 303.218L452.194 288.294L430.874 279.766L420.213 275.502L411.685 271.238L401.025 269.106H339.197L309.349 281.898L268.84 292.558L224.068 298.954H196.352L149.447 286.162L123.863 269.106L113.203 237.126L106.807 194.485L98.2789 128.393L87.6189 90.0166L55.6386 60.1684L44.9785 38.8482L55.6386 28.1882L70.5627 21.7921L87.6189 28.1882L149.447 70.8285L224.068 117.733H256.048L311.481 128.393L379.705 158.241L428.742 194.485L477.778 226.466Z" fill="#E79F22"/>
</g>
<g filter="url(#filter3_f)">
<path d="M398.895 757.338C396.467 779.578 378.286 793.623 358.387 791.45C338.488 789.278 328.243 773.182 330.671 750.942C333.099 728.702 353.411 712.525 373.31 714.698C393.209 716.87 401.323 735.098 398.895 757.338Z" fill="#535257"/>
</g>
<g filter="url(#filter4_f)">
<path d="M624.664 767.907C622.236 790.147 604.055 804.192 584.156 802.019C564.257 799.847 554.013 783.751 556.441 761.511C558.869 739.271 579.181 723.094 599.08 725.267C618.979 727.439 627.092 745.667 624.664 767.907Z" fill="#535257"/>
</g>
<g filter="url(#filter5_f)">
<path d="M300.822 880.995C300.822 904.544 279.091 917.239 249.654 917.239C220.217 917.239 196.354 900.28 196.354 876.731C196.354 853.181 220.217 834.128 249.654 834.128C279.091 834.128 300.822 857.445 300.822 880.995Z" fill="#F99494"/>
</g>
<g filter="url(#filter6_f)">
<path d="M757.074 893.787C757.074 917.337 726.814 932.163 697.377 932.163C667.94 932.163 624.889 906.677 624.889 883.127C624.889 859.577 653.016 851.147 682.453 851.147C711.89 851.147 757.074 870.237 757.074 893.787Z" fill="#F99494"/>
</g>
<g filter="url(#filter7_f)">
<path d="M435.137 902.315H420.213L409.553 904.447L398.893 912.975L394.629 930.031L396.761 955.615L401.025 968.407C404.578 973.382 411.685 983.758 411.685 985.464C411.685 987.169 424.477 997.545 430.873 1002.52L441.533 1008.92H475.646L499.098 1002.52L518.286 989.728L533.21 970.539L541.738 949.219L543.87 938.559L541.738 927.899L535.342 917.239L524.682 908.711L516.154 906.579L496.966 908.711L492.702 912.975L490.57 919.371C489.148 925.056 486.306 936.854 486.306 938.559C486.306 940.265 483.463 946.377 482.042 949.219L475.646 953.483H467.117L462.853 951.351L458.589 944.955L454.325 934.295C452.193 926.478 447.929 910.417 447.929 908.711C447.929 907.005 446.508 905.158 445.797 904.447L435.137 902.315Z" fill="#4B5755"/>
</g>
<g filter="url(#filter8_f)">
<path d="M216.539 463.631C212.739 455.581 214.383 445.956 220.878 439.868C260.869 402.39 294.061 386.383 356.214 376.555C364.829 375.192 373.244 379.798 376.967 387.685V387.685C383.305 401.111 373.281 416.494 358.469 417.514C306.541 421.088 281.473 437.59 251.739 468.841C241.294 479.819 223.007 477.334 216.539 463.631V463.631Z" fill="#E8E0EB"/>
</g>
<g filter="url(#filter9_f)">
<path d="M517.261 60.8803C516.196 55.6809 518.496 50.3189 523.163 47.791C541.497 37.8602 555.96 34.9419 579.009 36.6491C584.108 37.0268 588.248 40.8395 589.274 45.8482V45.8482C591.044 54.4871 583.003 61.8461 574.247 60.8016C558.54 58.9279 548.295 62.2359 536.951 68.991C529.205 73.6039 519.071 69.713 517.261 60.8803V60.8803Z" fill="#E8E0EB"/>
</g>
<defs>
<filter id="filter0_f" x="0.207899" y="298.954" width="923.163" height="560.72" filterUnits="userSpaceOnUse" color-interpolation-filters="sRGB">
<feFlood flood-opacity="0" result="BackgroundImageFix"/>
<feBlend mode="normal" in="SourceGraphic" in2="BackgroundImageFix" result="shape"/>
<feGaussianBlur stdDeviation="6.39605" result="effect1_foregroundBlur"/>
</filter>
<filter id="filter1_f" x="415.95" y="0.471933" width="394.423" height="332.595" filterUnits="userSpaceOnUse" color-interpolation-filters="sRGB">
<feFlood flood-opacity="0" result="BackgroundImageFix"/>
<feBlend mode="normal" in="SourceGraphic" in2="BackgroundImageFix" result="shape"/>
<feGaussianBlur stdDeviation="4.26403" result="effect1_foregroundBlur"/>
</filter>
<filter id="filter2_f" x="36.4504" y="13.264" width="1010.58" height="373.103" filterUnits="userSpaceOnUse" color-interpolation-filters="sRGB">
<feFlood flood-opacity="0" result="BackgroundImageFix"/>
<feBlend mode="normal" in="SourceGraphic" in2="BackgroundImageFix" result="shape"/>
<feGaussianBlur stdDeviation="4.26403" result="effect1_foregroundBlur"/>
</filter>
<filter id="filter3_f" x="318.099" y="701.996" width="93.6225" height="101.951" filterUnits="userSpaceOnUse" color-interpolation-filters="sRGB">
<feFlood flood-opacity="0" result="BackgroundImageFix"/>
<feBlend mode="normal" in="SourceGraphic" in2="BackgroundImageFix" result="shape"/>
<feGaussianBlur stdDeviation="4.26403" result="effect1_foregroundBlur"/>
</filter>
<filter id="filter4_f" x="543.868" y="712.565" width="93.6225" height="101.951" filterUnits="userSpaceOnUse" color-interpolation-filters="sRGB">
<feFlood flood-opacity="0" result="BackgroundImageFix"/>
<feBlend mode="normal" in="SourceGraphic" in2="BackgroundImageFix" result="shape"/>
<feGaussianBlur stdDeviation="4.26403" result="effect1_foregroundBlur"/>
</filter>
<filter id="filter5_f" x="187.825" y="825.6" width="121.525" height="100.167" filterUnits="userSpaceOnUse" color-interpolation-filters="sRGB">
<feFlood flood-opacity="0" result="BackgroundImageFix"/>
<feBlend mode="normal" in="SourceGraphic" in2="BackgroundImageFix" result="shape"/>
<feGaussianBlur stdDeviation="4.26403" result="effect1_foregroundBlur"/>
</filter>
<filter id="filter6_f" x="616.361" y="842.619" width="149.241" height="98.0728" filterUnits="userSpaceOnUse" color-interpolation-filters="sRGB">
<feFlood flood-opacity="0" result="BackgroundImageFix"/>
<feBlend mode="normal" in="SourceGraphic" in2="BackgroundImageFix" result="shape"/>
<feGaussianBlur stdDeviation="4.26403" result="effect1_foregroundBlur"/>
</filter>
<filter id="filter7_f" x="386.101" y="893.787" width="166.297" height="123.657" filterUnits="userSpaceOnUse" color-interpolation-filters="sRGB">
<feFlood flood-opacity="0" result="BackgroundImageFix"/>
<feBlend mode="normal" in="SourceGraphic" in2="BackgroundImageFix" result="shape"/>
<feGaussianBlur stdDeviation="4.26403" result="effect1_foregroundBlur"/>
</filter>
<filter id="filter8_f" x="194.222" y="350.123" width="200.426" height="141.249" filterUnits="userSpaceOnUse" color-interpolation-filters="sRGB">
<feFlood flood-opacity="0" result="BackgroundImageFix"/>
<feBlend mode="normal" in="SourceGraphic" in2="BackgroundImageFix" result="shape"/>
<feGaussianBlur stdDeviation="4.26403" result="effect1_foregroundBlur"/>
</filter>
<filter id="filter9_f" x="505.497" y="21.7922" width="94.9032" height="60.0331" filterUnits="userSpaceOnUse" color-interpolation-filters="sRGB">
<feFlood flood-opacity="0" result="BackgroundImageFix"/>
<feBlend mode="normal" in="SourceGraphic" in2="BackgroundImageFix" result="shape"/>
<feGaussianBlur stdDeviation="4.26403" result="effect1_foregroundBlur"/>
</filter>
</defs>
</svg>
