<svg width="270" height="100" viewBox="0 0 270 100" fill="none" xmlns="http://www.w3.org/2000/svg">
<path d="M78.9002 62.0606C78.9002 84.2359 63.8647 99.9922 41.8938 99.9922C19.9228 99.9922 2.29688 86.6413 2.29688 64.466C2.29688 42.2906 18.0725 27.4595 40.0434 27.4595C62.0144 27.4595 78.9002 39.8852 78.9002 62.0606Z" fill="#F8CDC4"/>
<g filter="url(#filter0_f)">
<path d="M37.2663 51.5138L42.6322 47.6281L46.1479 50.7736L52.0689 55.3994L57.2498 59.1001L61.8756 61.3205L69.0918 63.7259L74.6428 65.7612L75.0129 70.202L77.2333 73.7176L77.7884 71.4972L78.8985 67.2415V61.3205V55.9545L77.7884 51.5138L76.1231 47.6281L73.9027 43.3723L70.9422 39.8567L68.1667 36.8962L64.8361 34.3058L59.4702 31.3452L54.1042 29.1249L49.1084 28.0147L43.9275 27.2745H38.5615L32.6405 28.0147L27.0895 29.1249L23.5739 30.6051L16.9128 34.3058L11.1768 38.7465L5.6258 45.0376L2.29523 53.179L1 61.5055L2.29523 67.2415L4.14555 64.466L4.88568 62.8007H5.6258L25.9793 55.9545L32.6405 53.9192L37.2663 51.5138Z" fill="#5F3962"/>
</g>
<g filter="url(#filter1_f)">
<path d="M69.4636 12.287C69.4636 19.5425 63.7366 28.3848 54.846 28.3848C45.9555 28.3848 36.7129 20.8377 36.7129 13.5822C36.7129 6.32667 41.3297 1 50.2202 1C59.1108 1 69.4636 5.03144 69.4636 12.287Z" fill="#603A63"/>
</g>
<g filter="url(#filter2_f)">
<path d="M41.3369 19.8733L43.9274 23.5739L47.443 23.0188H50.9586H52.8089L55.0293 23.7589L56.8796 24.4991L58.1749 25.6093H58.915L60.2102 24.8691L61.8755 24.4991L63.7258 24.129H65.021H67.0564H69.0918L71.8672 24.4991L73.5325 24.8691L75.9379 25.6093L78.1583 26.5344L79.6386 27.4596L81.3039 28.5698H82.9692H85.1895H88.5201L89.6303 29.3099L90.0004 30.2351L89.2603 30.7902L86.6698 31.7153L83.8943 32.2704L82.044 32.6405L80.1937 33.0105H74.0876L72.4223 32.2704L68.7217 31.7153L66.3163 31.1602L63.7258 30.2351H60.5803H59.285L55.3994 30.7902L42.077 27.4596L41.3369 26.5344L39.1165 25.2392L37.2662 24.4991L36.3411 24.129L35.6009 23.7589L34.6758 23.5739H29.3098L26.7194 24.6841L23.2038 25.6093L19.3181 26.1644H16.9127L12.842 25.0542L10.6216 23.5739L9.69642 20.7984L9.14132 17.0978L8.4012 11.3618L7.47603 8.0312L4.70055 5.44075L3.77539 3.59043L4.70055 2.66527L5.99578 2.11017L7.47603 2.66527L12.842 6.36591L19.3181 10.4366H22.0936L26.9044 11.3618L32.8254 13.9522L37.0812 17.0978L41.3369 19.8733Z" fill="#E79F22"/>
</g>
<g filter="url(#filter3_f)">
<path d="M34.4892 65.9463C34.2784 67.8765 32.7005 69.0954 30.9735 68.9068C29.2466 68.7183 28.3575 67.3214 28.5682 65.3912C28.7789 63.4611 30.5418 62.0571 32.2687 62.2457C33.9957 62.4342 34.6999 64.0162 34.4892 65.9463Z" fill="#535257"/>
</g>
<g filter="url(#filter4_f)">
<path d="M54.0829 66.8636C53.8722 68.7937 52.2943 70.0126 50.5673 69.8241C48.8403 69.6355 47.9513 68.2386 48.162 66.3085C48.3727 64.3783 50.1355 62.9744 51.8625 63.1629C53.5895 63.3514 54.2936 64.9334 54.0829 66.8636Z" fill="#535257"/>
</g>
<g filter="url(#filter5_f)">
<path d="M25.9787 76.6782C25.9787 78.722 24.0927 79.8237 21.5379 79.8237C18.9832 79.8237 16.9121 78.3519 16.9121 76.3081C16.9121 74.2643 18.9832 72.6107 21.5379 72.6107C24.0927 72.6107 25.9787 74.6344 25.9787 76.6782Z" fill="#F99494"/>
</g>
<g filter="url(#filter6_f)">
<path d="M65.5775 77.7884C65.5775 79.8322 62.9513 81.1189 60.3966 81.1189C57.8418 81.1189 54.1055 78.907 54.1055 76.8632C54.1055 74.8194 56.5466 74.0877 59.1013 74.0877C61.6561 74.0877 65.5775 75.7445 65.5775 77.7884Z" fill="#F99494"/>
</g>
<g filter="url(#filter7_f)">
<path d="M37.6348 78.5285H36.3395L35.4144 78.7135L34.4892 79.4537L34.1191 80.9339L34.3042 83.1543L34.6742 84.2645C34.9826 84.6962 35.5994 85.5967 35.5994 85.7448C35.5994 85.8928 36.7096 86.7933 37.2647 87.225L38.1898 87.7801H41.1504L43.1857 87.225L44.851 86.1148L46.1462 84.4495L46.8864 82.5992L47.0714 81.6741L46.8864 80.7489L46.3313 79.8237L45.4061 79.0836L44.666 78.8986L43.0007 79.0836L42.6306 79.4537L42.4456 80.0088C42.3222 80.5022 42.0755 81.526 42.0755 81.6741C42.0755 81.8221 41.8288 82.3525 41.7055 82.5992L41.1504 82.9693H40.4102L40.0402 82.7842L39.6701 82.2291L39.3 81.304C39.115 80.6255 38.7449 79.2316 38.7449 79.0836C38.7449 78.9356 38.6216 78.7752 38.5599 78.7135L37.6348 78.5285Z" fill="#4B5755"/>
</g>
<g filter="url(#filter8_f)">
<path d="M18.6635 40.4563C18.3337 39.7576 18.4764 38.9223 19.0401 38.394C22.5108 35.1413 25.3915 33.7521 30.7855 32.8991C31.5332 32.7809 32.2635 33.1806 32.5867 33.8651V33.8651C33.1367 35.0303 32.2667 36.3654 30.9813 36.4539C26.4745 36.7641 24.299 38.1962 21.7184 40.9085C20.812 41.8612 19.2249 41.6455 18.6635 40.4563V40.4563Z" fill="#E8E0EB"/>
</g>
<g filter="url(#filter9_f)">
<path d="M44.7633 5.50254C44.6708 5.05129 44.8704 4.58594 45.2755 4.36655C46.8666 3.50469 48.1218 3.25141 50.1222 3.39958C50.5647 3.43236 50.924 3.76325 51.013 4.19794V4.19794C51.1666 4.94768 50.4688 5.58636 49.7089 5.49571C48.3457 5.3331 47.4566 5.62019 46.4721 6.20645C45.7998 6.60679 44.9203 6.2691 44.7633 5.50254V5.50254Z" fill="#E8E0EB"/>
</g>
<path d="M103.442 50C100.998 50 99.0397 49.4047 97.567 48.214C96.0943 47.0233 95.358 44.9083 95.358 41.869V31.717H91.363V26.688H95.358L96.063 20.437H101.374V26.688H107.672V31.717H101.374V41.916C101.374 43.044 101.609 43.8273 102.079 44.266C102.58 44.6733 103.426 44.877 104.617 44.877H107.531V50H103.442ZM116.08 23.069C114.984 23.069 114.075 22.74 113.354 22.082C112.665 21.424 112.32 20.5937 112.32 19.591C112.32 18.5883 112.665 17.7737 113.354 17.147C114.075 16.489 114.984 16.16 116.08 16.16C117.177 16.16 118.07 16.489 118.759 17.147C119.48 17.7737 119.84 18.5883 119.84 19.591C119.84 20.5937 119.48 21.424 118.759 22.082C118.07 22.74 117.177 23.069 116.08 23.069ZM113.072 50V26.688H119.088V50H113.072ZM126.449 50V31.717H123.253V26.688H126.449V23.962C126.449 21.142 127.154 19.1367 128.564 17.946C130.005 16.7553 131.948 16.16 134.391 16.16H136.977V21.283H135.332C134.298 21.283 133.561 21.4867 133.123 21.894C132.684 22.3013 132.465 22.9907 132.465 23.962V26.688H137.494V31.717H132.465V50H126.449ZM143.339 50V31.717H140.143V26.688H143.339V23.962C143.339 21.142 144.044 19.1367 145.454 17.946C146.895 16.7553 148.838 16.16 151.282 16.16H153.867V21.283H152.222C151.188 21.283 150.452 21.4867 150.013 21.894C149.574 22.3013 149.355 22.9907 149.355 23.962V26.688H154.384V31.717H149.355V50H143.339ZM166.268 50.564C164.262 50.564 162.617 50.2507 161.333 49.624C160.048 48.966 159.092 48.1043 158.466 47.039C157.839 45.9737 157.526 44.7987 157.526 43.514C157.526 41.352 158.372 39.5973 160.064 38.25C161.756 36.9027 164.294 36.229 167.678 36.229H173.6V35.665C173.6 34.067 173.145 32.892 172.237 32.14C171.328 31.388 170.2 31.012 168.853 31.012C167.631 31.012 166.565 31.3097 165.657 31.905C164.748 32.469 164.184 33.315 163.965 34.443H158.09C158.246 32.751 158.81 31.2783 159.782 30.025C160.784 28.7717 162.069 27.816 163.636 27.158C165.202 26.4687 166.957 26.124 168.9 26.124C172.221 26.124 174.837 26.9543 176.749 28.615C178.66 30.2757 179.616 32.6257 179.616 35.665V50H174.493L173.929 46.24C173.239 47.4933 172.268 48.5273 171.015 49.342C169.793 50.1567 168.21 50.564 166.268 50.564ZM167.631 45.864C169.354 45.864 170.686 45.3 171.626 44.172C172.597 43.044 173.208 41.6497 173.459 39.989H168.336C166.738 39.989 165.594 40.2867 164.905 40.882C164.215 41.446 163.871 42.151 163.871 42.997C163.871 43.9057 164.215 44.6107 164.905 45.112C165.594 45.6133 166.503 45.864 167.631 45.864ZM185.357 50V26.688H190.668L191.138 30.636C191.858 29.2573 192.892 28.1607 194.24 27.346C195.618 26.5313 197.232 26.124 199.081 26.124C201.963 26.124 204.204 27.0327 205.802 28.85C207.4 30.6673 208.199 33.3307 208.199 36.84V50H202.183V37.404C202.183 35.3987 201.775 33.8633 200.961 32.798C200.146 31.7327 198.877 31.2 197.154 31.2C195.462 31.2 194.067 31.7953 192.971 32.986C191.905 34.1767 191.373 35.8373 191.373 37.968V50H185.357ZM216.085 60.34L221.49 48.449H220.08L211.009 26.688H217.542L224.075 43.091L230.89 26.688H237.282L222.477 60.34H216.085ZM160.472 83.564C158.091 83.564 155.991 83.047 154.174 82.013C152.357 80.979 150.915 79.5377 149.85 77.689C148.816 75.8403 148.299 73.7253 148.299 71.344C148.299 68.9627 148.816 66.8477 149.85 64.999C150.915 63.1503 152.357 61.709 154.174 60.675C155.991 59.641 158.091 59.124 160.472 59.124C163.449 59.124 165.955 59.9073 167.992 61.474C170.029 63.0093 171.329 65.14 171.893 67.866H165.548C165.235 66.738 164.608 65.8607 163.668 65.234C162.759 64.576 161.678 64.247 160.425 64.247C158.764 64.247 157.354 64.8737 156.195 66.127C155.036 67.3803 154.456 69.1193 154.456 71.344C154.456 73.5687 155.036 75.3077 156.195 76.561C157.354 77.8143 158.764 78.441 160.425 78.441C161.678 78.441 162.759 78.1277 163.668 77.501C164.608 76.8743 165.235 75.9813 165.548 74.822H171.893C171.329 77.454 170.029 79.569 167.992 81.167C165.955 82.765 163.449 83.564 160.472 83.564ZM177.233 83V49.16H183.249V63.26C184.032 61.9753 185.082 60.9727 186.398 60.252C187.745 59.5 189.28 59.124 191.004 59.124C193.886 59.124 196.111 60.0327 197.678 61.85C199.276 63.6673 200.075 66.3307 200.075 69.84V83H194.106V70.404C194.106 68.3987 193.698 66.8633 192.884 65.798C192.1 64.7327 190.847 64.2 189.124 64.2C187.432 64.2 186.022 64.7953 184.894 65.986C183.797 67.1767 183.249 68.8373 183.249 70.968V83H177.233ZM213.864 83.564C211.859 83.564 210.214 83.2507 208.929 82.624C207.645 81.966 206.689 81.1043 206.062 80.039C205.436 78.9737 205.122 77.7987 205.122 76.514C205.122 74.352 205.968 72.5973 207.66 71.25C209.352 69.9027 211.89 69.229 215.274 69.229H221.196V68.665C221.196 67.067 220.742 65.892 219.833 65.14C218.925 64.388 217.797 64.012 216.449 64.012C215.227 64.012 214.162 64.3097 213.253 64.905C212.345 65.469 211.781 66.315 211.561 67.443H205.686C205.843 65.751 206.407 64.2783 207.378 63.025C208.381 61.7717 209.666 60.816 211.232 60.158C212.799 59.4687 214.554 59.124 216.496 59.124C219.818 59.124 222.434 59.9543 224.345 61.615C226.257 63.2757 227.212 65.6257 227.212 68.665V83H222.089L221.525 79.24C220.836 80.4933 219.865 81.5273 218.611 82.342C217.389 83.1567 215.807 83.564 213.864 83.564ZM215.227 78.864C216.951 78.864 218.282 78.3 219.222 77.172C220.194 76.044 220.805 74.6497 221.055 72.989H215.932C214.334 72.989 213.191 73.2867 212.501 73.882C211.812 74.446 211.467 75.151 211.467 75.997C211.467 76.9057 211.812 77.6107 212.501 78.112C213.191 78.6133 214.099 78.864 215.227 78.864ZM232.953 83V59.688H238.264L238.734 63.636C239.455 62.2573 240.489 61.1607 241.836 60.346C243.215 59.5313 244.829 59.124 246.677 59.124C249.56 59.124 251.8 60.0327 253.398 61.85C254.996 63.6673 255.795 66.3307 255.795 69.84V83H249.779V70.404C249.779 68.3987 249.372 66.8633 248.557 65.798C247.743 64.7327 246.474 64.2 244.75 64.2C243.058 64.2 241.664 64.7953 240.567 65.986C239.502 67.1767 238.969 68.8373 238.969 70.968V83H232.953ZM264.133 83.329C263.036 83.329 262.128 82.9843 261.407 82.295C260.718 81.6057 260.373 80.7753 260.373 79.804C260.373 78.8013 260.718 77.9553 261.407 77.266C262.128 76.5767 263.036 76.232 264.133 76.232C265.23 76.232 266.123 76.5767 266.812 77.266C267.533 77.9553 267.893 78.8013 267.893 79.804C267.893 80.7753 267.533 81.6057 266.812 82.295C266.123 82.9843 265.23 83.329 264.133 83.329Z" fill="#5F3962"/>
<defs>
<filter id="filter0_f" x="0.118446" y="26.393" width="79.6617" height="48.2062" filterUnits="userSpaceOnUse" color-interpolation-filters="sRGB">
<feFlood flood-opacity="0" result="BackgroundImageFix"/>
<feBlend mode="normal" in="SourceGraphic" in2="BackgroundImageFix" result="shape"/>
<feGaussianBlur stdDeviation="0.440777" result="effect1_foregroundBlur"/>
</filter>
<filter id="filter1_f" x="36.1252" y="0.412298" width="33.9261" height="28.5602" filterUnits="userSpaceOnUse" color-interpolation-filters="sRGB">
<feFlood flood-opacity="0" result="BackgroundImageFix"/>
<feBlend mode="normal" in="SourceGraphic" in2="BackgroundImageFix" result="shape"/>
<feGaussianBlur stdDeviation="0.293851" result="effect1_foregroundBlur"/>
</filter>
<filter id="filter2_f" x="3.18769" y="1.52247" width="87.4004" height="32.0758" filterUnits="userSpaceOnUse" color-interpolation-filters="sRGB">
<feFlood flood-opacity="0" result="BackgroundImageFix"/>
<feBlend mode="normal" in="SourceGraphic" in2="BackgroundImageFix" result="shape"/>
<feGaussianBlur stdDeviation="0.293851" result="effect1_foregroundBlur"/>
</filter>
<filter id="filter3_f" x="27.9494" y="61.641" width="7.16309" height="7.8727" filterUnits="userSpaceOnUse" color-interpolation-filters="sRGB">
<feFlood flood-opacity="0" result="BackgroundImageFix"/>
<feBlend mode="normal" in="SourceGraphic" in2="BackgroundImageFix" result="shape"/>
<feGaussianBlur stdDeviation="0.293851" result="effect1_foregroundBlur"/>
</filter>
<filter id="filter4_f" x="47.5432" y="62.5582" width="7.16309" height="7.8727" filterUnits="userSpaceOnUse" color-interpolation-filters="sRGB">
<feFlood flood-opacity="0" result="BackgroundImageFix"/>
<feBlend mode="normal" in="SourceGraphic" in2="BackgroundImageFix" result="shape"/>
<feGaussianBlur stdDeviation="0.293851" result="effect1_foregroundBlur"/>
</filter>
<filter id="filter5_f" x="16.3244" y="72.023" width="10.242" height="8.38841" filterUnits="userSpaceOnUse" color-interpolation-filters="sRGB">
<feFlood flood-opacity="0" result="BackgroundImageFix"/>
<feBlend mode="normal" in="SourceGraphic" in2="BackgroundImageFix" result="shape"/>
<feGaussianBlur stdDeviation="0.293851" result="effect1_foregroundBlur"/>
</filter>
<filter id="filter6_f" x="53.5178" y="73.5" width="12.6474" height="8.20663" filterUnits="userSpaceOnUse" color-interpolation-filters="sRGB">
<feFlood flood-opacity="0" result="BackgroundImageFix"/>
<feBlend mode="normal" in="SourceGraphic" in2="BackgroundImageFix" result="shape"/>
<feGaussianBlur stdDeviation="0.293851" result="effect1_foregroundBlur"/>
</filter>
<filter id="filter7_f" x="33.5314" y="77.9408" width="14.1277" height="10.427" filterUnits="userSpaceOnUse" color-interpolation-filters="sRGB">
<feFlood flood-opacity="0" result="BackgroundImageFix"/>
<feBlend mode="normal" in="SourceGraphic" in2="BackgroundImageFix" result="shape"/>
<feGaussianBlur stdDeviation="0.293851" result="effect1_foregroundBlur"/>
</filter>
<filter id="filter8_f" x="17.9006" y="32.2908" width="15.4414" height="9.80192" filterUnits="userSpaceOnUse" color-interpolation-filters="sRGB">
<feFlood flood-opacity="0" result="BackgroundImageFix"/>
<feBlend mode="normal" in="SourceGraphic" in2="BackgroundImageFix" result="shape"/>
<feGaussianBlur stdDeviation="0.293851" result="effect1_foregroundBlur"/>
</filter>
<filter id="filter9_f" x="44.1525" y="2.7721" width="7.46888" height="4.19171" filterUnits="userSpaceOnUse" color-interpolation-filters="sRGB">
<feFlood flood-opacity="0" result="BackgroundImageFix"/>
<feBlend mode="normal" in="SourceGraphic" in2="BackgroundImageFix" result="shape"/>
<feGaussianBlur stdDeviation="0.293851" result="effect1_foregroundBlur"/>
</filter>
</defs>
</svg>
