<svg width="99" height="127" viewBox="0 0 99 127" fill="none" xmlns="http://www.w3.org/2000/svg">
<path d="M5 75.1193C5 70.9901 5.3546 66.764 5.3546 62.5925C5.3546 61.0352 6.42895 61.3458 7.56104 60.0907C8.66283 58.8692 9.05423 56.6465 10.1615 55.3552C11.9373 53.2841 13.6442 51.1297 15.6381 49.2258C16.7762 48.1392 17.9657 47.0108 19.0069 45.8484C19.8884 44.8643 21.2226 44.3592 22.021 43.4539C23.6302 41.6294 26.7895 39.8597 29.1131 38.8613C32.9432 37.2156 36.9565 35.7732 41.1697 35.0908C45.0679 34.4593 48.814 33 52.7929 33C57.9131 33 62.8766 35.8926 67.115 38.1644C72.1653 40.8714 77.1879 43.5236 81.8705 46.7598C83.4861 47.8764 78.5684 48.7014 80 50C80.808 50.7329 84.4999 54.0578 85 55C85.4347 55.819 86.535 57.1439 87 58C87.9727 59.7906 89.7833 60.122 90.5 62C91.733 65.2311 94.2602 67.4689 94.8923 70.7948C95.2877 72.8747 94.4756 74.5657 94.3604 76.6025C94.2622 78.3392 94.1942 80.3506 93.73 82.0349C93.153 84.1284 92.5874 85.6491 92.5874 87.8426C92.5874 90.0484 92.3645 92.4061 92.2328 94.4366C92.1126 96.2901 92.1968 97.9879 91.5 99.7261C90.8966 101.231 90.6054 102.942 90.5 104.663C90.3733 106.733 87.7419 110.697 86.0075 112.271C84.7369 113.423 82.98 114.846 81.3976 115.666C79.25 116.779 76.6223 119.468 75.5917 120.87C72.5001 122.8 71.7623 122.336 69.3608 123.547C66.1984 125.14 62.5076 125.61 58.9393 126.459C57.4408 126.816 55.3155 126.924 53.7779 126.924C52.3217 126.924 50.7611 127.176 49.3059 126.763C46.8946 126.08 43.5654 126.604 41.4455 125.066C41.0804 124.801 40.1362 124.755 39.6725 124.601C38.2014 124.112 36.7686 123.345 35.4172 122.635C34.3781 122.09 33.0543 121.778 31.95 121.277C30.0587 120.419 28.2932 118.995 26.7097 117.846C24.6263 116.334 22.0155 115.339 20.0904 113.593C18.4726 112.126 14.8588 109.625 14.5743 107.303C14.3446 105.428 12.448 102.838 11.5405 101.191C10.5022 99.3078 10.3533 97.3533 9.33406 95.4016C8.49101 93.7872 7.55954 92.4201 7.14733 90.7375C6.67488 88.809 7.68217 86.6424 6.77302 84.7869C5.36982 81.923 5 78.2451 5 75.1193Z" fill="#F8CDC4"/>
<path d="M42.2097 33.1626C45.5083 32.3264 47.9189 31 51.3822 31C60.7474 31 64.3076 34.2284 72.5238 38.7929C78.7889 42.2736 84.026 48.393 87.8114 54.3415C89.2562 56.6119 90.638 58.779 92.323 60.8853C93.3762 62.2017 94.1617 63.7636 94.9331 65.2292L94.9649 65.2895C95.5639 66.4274 96.6214 68.436 96.6856 69.5918C96.8152 71.925 97.6923 74.1763 97.6923 76.639C97.6923 78.7478 97.0212 80.9561 97.0212 83.1828C97.0212 84.0789 97.0715 84.7322 96.2754 85.2895C95.6036 85.7598 93.7853 84.2853 93.5 84C92.0808 82.5808 92.6537 80.3193 91.9129 78.6524C91.01 76.6209 90.428 75.1576 88.2961 74.0289C85.5921 72.5973 83.384 71.9052 80.1116 71.4561C74.6532 70.7069 69.1511 70.0843 64.8427 66.2546C62.4786 64.1531 60.6929 61.9504 59.1006 59.2633C58.4038 58.0876 57.7843 56.7314 57.2362 55.4787C56.8239 54.5362 56.5996 53.008 56.0058 52.2161C55.6357 51.7226 55.8559 52.1756 55.6702 52.4026C54.0801 54.346 53.0849 56.688 51.5314 58.6854C50.5947 59.8897 49.5932 61.2445 48.7722 62.5446C47.9199 63.894 45.9734 64.9825 45.3418 66.4037C44.8897 67.421 41.8728 69.3422 40.9792 69.8528C38.2391 71.4186 35.8984 73.5297 33.0744 74.9611C27.8469 77.6106 22.826 79.3577 17.0784 80.2558C14.9638 80.5862 12.962 81.2223 11.2803 82.5303C10.0539 83.4841 10.3751 84.85 9.5838 85.8674C8.43307 87.3469 8 91.5 6.5 92.5C5.5 93.5 5.05364 91.704 4.73653 91.4045C3.93553 90.648 3.3942 89.5691 3.3942 88.3843C3.3942 87.3061 2.89117 86.4104 2.74169 85.364C2.60067 84.3769 2.78154 83.3383 2.72304 82.3438C2.62749 80.7194 1.4811 79.591 1.06378 78.1304C0.813457 77.2543 1.38072 76.1528 1.38072 75.2221C1.38072 74.0333 1.7163 72.9797 1.7163 71.773C1.7163 69.8142 2.8741 67.885 3.65521 66.236C5.10136 63.183 4.94488 59.2568 6.489 56.1685C9.02767 51.0912 12.9325 48.0594 17.153 44.4419C21.8358 40.4281 26.4859 38.393 32.0863 36.2015C35.4354 34.891 38.7459 34.0408 42.2097 33.1626Z" fill="#5F3962" stroke="#5F3962" stroke-linecap="round" stroke-linejoin="round"/>
<path d="M42.3325 19.3533C46.3444 22.5628 46.2466 28.543 49.1631 32.276L51.3784 33.0144C54.2423 33.0144 56.7995 30.7764 59.132 29.4043C61.6558 27.9197 65.3797 26.2141 66.8856 23.5788C67.835 21.9174 69.2528 20.5783 70.024 18.779C70.6054 17.4223 72.3449 15.2369 72.4239 13.815C72.509 12.2834 73.6261 10.9915 73.5315 9.38439C73.472 8.37256 72.7252 6.83895 72.4444 5.85629C71.5709 2.79901 67.1343 2 64.4857 2C59.7781 2 55.1144 3.09735 50.5543 4.1703L50.5374 4.17429C48.6757 4.61234 45.5763 5.31721 44.6504 7.16907C43.8438 8.78226 43.8637 10.6833 43.5427 12.5022C43.3695 13.4837 41.1829 18.4336 42.3325 19.3533Z" fill="#5F3962" stroke="#5F3962" stroke-width="3.43577" stroke-linecap="round" stroke-linejoin="round"/>
<path d="M63.494 26.0413C62.4128 27.9334 60.9834 29.4067 60.0742 31.4796C60.4649 32.2609 63.6732 32.762 64.5626 32.762H66.7C67.7592 32.762 67.8496 33.0786 68.7423 33.4032C70 33.5 71.737 33.3621 73.017 33.0233C74.6294 32.5964 75.9548 32.0213 77.7192 32.4414C78.9562 32.7359 80.2044 32.6845 81.3408 33.1895C81.6681 33.335 82.745 33.9028 82.9438 34.1513C83.8091 35.2329 86.6339 34.869 87.7884 34.6381C91.423 33.9112 96.2066 31.7495 97.6439 28.0124C98.1347 26.7364 98.5016 24.8593 97.8577 23.5714C97.2414 22.3389 96.926 22.2521 95.9816 23.144C95.2565 23.8287 94.3049 24.3896 93.6424 25.1626C92.9776 25.9381 91.6834 27.3606 90.6382 27.4187C89.2554 27.4955 87.8442 27.4187 86.4585 27.4187C85.4423 27.4187 84.185 27.6095 83.2644 27.0981C82.5658 26.71 81.4835 26.5912 80.6996 26.35C79.3811 25.9443 78.2443 25.1878 77.0661 24.5333C76.1314 24.014 75.4515 23.5445 74.3944 23.2508C73.1422 22.903 71.8433 23.5284 70.5947 23.5714C69.1227 23.6222 67.3829 24.1791 66.0588 24.8064C65.384 25.126 63.8656 25.3909 63.494 26.0413Z" fill="#DC9C3D" stroke="#DC9C3D" stroke-linecap="round" stroke-linejoin="round"/>
<path d="M52.0351 29.4491C49.3339 28.8619 46.1177 29.9534 45.3262 32.9757C46.1748 33.4001 46.9621 35.0204 47.7247 35.7068C48.3231 36.2453 51.0899 36.1685 51.8332 35.9561C53.2728 35.5448 55.011 35.5144 56.5591 35.1606C57.4285 34.9619 58.2123 34.8993 59.112 34.8993C59.9248 34.8993 60.5013 34.9361 60.5013 33.9375C60.5013 33.3107 60.967 32.9843 60.9288 32.3345C60.9003 31.8511 59.6989 31.58 59.3258 31.3727C58.2385 30.7687 57.2715 30.4808 56.0129 30.4109C54.6285 30.334 53.379 29.7413 52.0351 29.4491Z" fill="#DC9C3D" stroke="#DC9C3D" stroke-linecap="round" stroke-linejoin="round"/>
<path d="M9.85909 10.5455C8.67685 10.7426 6.93977 12.2582 6 12.8847C7.89127 12.8847 9.89224 12.597 11.5571 13.4784C12.9419 14.2115 14.1219 16.9719 14.1219 18.4418C14.1219 20.6735 13.4807 22.6872 13.4807 24.8538C13.4807 27.2987 15.5011 31.1296 17.7554 32.382C18.6333 32.8698 19.2193 33.5619 20.2015 33.8425C20.9992 34.0705 21.5292 34.8993 22.505 34.8993C24.6514 34.8993 26.7739 34.9372 28.8814 34.6737C31.2319 34.3799 33.357 33.4544 35.6141 32.8095C36.7329 32.4898 38.3145 31.8636 39.2357 31.1471C40.6011 30.0851 42.3105 29.0464 44.0447 29.8172C44.6545 30.0883 45.9642 31.1199 46.1939 30.3159C46.3677 29.7076 47.6944 29.5357 48.0581 29.081C48.59 28.4162 47.1449 26.8172 46.7045 26.4568C45.9812 25.8651 45.1823 25.3163 44.3534 25.0794C43.5512 24.8502 42.4806 24.2126 41.6936 24.2126C40.9058 24.2126 39.6938 23.8378 39.0219 23.4646C38.298 23.0624 36.5125 22.9302 35.6616 22.9302C33.8255 22.9302 31.868 22.5028 30.152 22.5028C28.8247 22.5028 27.0809 22.7768 25.7942 22.4909C25.3578 22.3939 24.7575 22.2467 24.2861 22.0753C23.8884 21.9306 23.6686 21.3954 23.3125 21.1729C22.6015 20.7285 22.3154 19.2547 21.9232 18.5487C21.365 17.5439 20.4993 15.7525 20.3083 14.6065C19.9104 12.2191 18.7027 10.8273 16.3661 10.308C15.6543 10.1498 15.0672 10.1062 14.3 10.1062C13.5155 10.1062 12.0925 9.83823 11.3434 10.1537C10.884 10.3471 10.353 10.4632 9.85909 10.5455Z" fill="#DC9C3D" stroke="#DC9C3D" stroke-linecap="round" stroke-linejoin="round"/>
<path d="M49.0003 8.49997C50.6459 6.22897 52.542 6.30548 55.2922 5.86636C56.7656 5.63111 60.5 6.5 60 6.5" stroke="white" stroke-width="1.8" stroke-linecap="round" stroke-linejoin="round"/>
<path d="M16.959 52.9029C17.4041 50.1339 19.1311 49.3474 21.388 47.7155C22.5971 46.8413 26.3222 45.9334 25.8759 46.1588" stroke="white" stroke-width="1.8" stroke-linecap="round" stroke-linejoin="round"/>
<path d="M65.5355 80.0094C65.6905 79.0228 65.1011 78.6108 64.0673 78.5755C63.4219 78.5535 63.4744 79.6149 63.5423 79.9595C63.6336 80.4226 63.8013 80.568 64.0496 80.933C64.2249 81.1907 65.2232 81.0756 65.3264 80.8056C65.6193 80.0388 65.8775 79.1621 65.225 78.4636C64.9942 78.2165 64.2738 78.419 64.1804 78.708C64.0911 78.9846 64.035 79.5271 63.9081 79.6997" stroke="#313B3B" stroke-width="6" stroke-linecap="round" stroke-linejoin="round"/>
<path d="M44.5355 82.0094C44.6905 81.0228 44.1011 80.6108 43.0673 80.5755C42.4219 80.5535 42.4744 81.6149 42.5423 81.9595C42.6336 82.4226 42.8013 82.568 43.0496 82.933C43.2249 83.1907 44.2232 83.0756 44.3264 82.8056C44.6193 82.0388 44.8775 81.1621 44.225 80.4636C43.9942 80.2165 43.2738 80.419 43.1804 80.708C43.0911 80.9846 43.035 81.5271 42.9081 81.6997" stroke="#313B3B" stroke-width="6" stroke-linecap="round" stroke-linejoin="round"/>
<path d="M53.4276 103.122C53.9191 104.465 54.7863 106.037 56.1199 107.08C56.4775 107.359 57.35 107.997 57.878 108.015C58.9206 108.051 59.8296 108.032 60.8521 107.872C62.3683 107.635 63.162 106.165 63.4339 105.216C63.5963 104.65 64.5 102 64.5 101.5" stroke="#313B3B" stroke-width="4" stroke-linecap="round" stroke-linejoin="round"/>
<path d="M31.5639 96.7153C31.0489 96.7279 29.6932 96.8253 29.8762 97.6487C30.0435 98.4017 30.5999 98.1826 31.1302 98.0353C31.5574 97.9166 33.0296 97.437 32.9121 96.7908C32.8294 96.3357 32.3262 96.0365 31.9033 96.0365C31.2321 96.0365 30.2359 96.4718 29.7348 96.9227C28.9355 97.6421 28.9006 97.7516 29.0182 98.7518C29.091 99.3703 30.1824 100.145 30.7153 100.411C31.7811 100.944 33.4623 100.58 34.5432 100.317C37.0325 99.7114 37.0433 97.7769 36.476 95.7914C36.3248 95.2622 35.1525 94.9647 34.7129 94.8391C33.9119 94.6103 33.2264 94.5091 32.3276 94.5091C31.1098 94.5091 29.0182 95.4388 29.0182 96.9699C29.0182 98.1153 29.3261 98.5506 30.1213 99.3458C30.9335 100.158 33.0169 100.837 34.1189 100.355C35.0586 99.9435 36.3157 99.3561 36.3157 98.1578C36.3157 97.1263 35.9019 95.9616 34.958 95.4897C33.185 94.6031 31.4087 94.7898 29.6594 95.3954C28.8826 95.6642 28 95.8622 28 96.885C28 97.8005 28.0222 98.7354 28.6788 99.4307C29.453 100.25 30.6 100.788 31.7336 100.788C32.7152 100.788 33.7946 100.853 34.7035 100.449C34.9803 100.326 35.6066 100.046 35.7689 99.7701C36.1632 99.0997 37.2136 98.3539 36.7871 97.3942C36.3831 96.4851 36.6944 95.6225 35.6369 95.0937C34.3627 94.4566 33.3394 94 31.9033 94C31.3126 94 29.6999 94.1743 29.3577 94.7731C28.7299 95.8716 29.5732 97.3258 30.8473 97.215C31.4685 97.161 33.5802 97.1144 32.9592 96.3382C32.7114 96.0284 34.065 95.8668 34.1849 95.8668C34.7636 95.8668 36.4741 95.921 35.8914 96.9699C35.5113 97.6541 34.5495 98.2037 33.7701 98.2427C32.8789 98.2873 32.5027 97.0391 32.0918 96.4042C31.4296 95.3808 30.901 94.911 29.6122 95.1974C28.7775 95.3829 28.0917 96.0502 28.5091 96.885" stroke="#F99090" stroke-width="4" stroke-linecap="round" stroke-linejoin="round"/>
<path d="M76.5639 91.7153C76.0489 91.7279 74.6932 91.8253 74.8762 92.6487C75.0435 93.4017 75.5999 93.1826 76.1302 93.0353C76.5574 92.9166 78.0296 92.437 77.9121 91.7908C77.8294 91.3357 77.3262 91.0365 76.9033 91.0365C76.2321 91.0365 75.2359 91.4718 74.7348 91.9227C73.9355 92.6421 73.9006 92.7516 74.0182 93.7518C74.091 94.3703 75.1824 95.1447 75.7153 95.4112C76.7811 95.9441 78.4623 95.5798 79.5432 95.3169C82.0325 94.7114 82.0433 92.7769 81.476 90.7914C81.3248 90.2622 80.1525 89.9647 79.7129 89.8391C78.9119 89.6103 78.2264 89.5091 77.3276 89.5091C76.1098 89.5091 74.0182 90.4388 74.0182 91.9699C74.0182 93.1153 74.3261 93.5506 75.1213 94.3458C75.9335 95.1579 78.0169 95.8367 79.1189 95.3546C80.0586 94.9435 81.3157 94.3561 81.3157 93.1578C81.3157 92.1263 80.9019 90.9616 79.958 90.4897C78.185 89.6031 76.4087 89.7898 74.6594 90.3954C73.8826 90.6642 73 90.8622 73 91.885C73 92.8005 73.0222 93.7354 73.6788 94.4307C74.453 95.2504 75.6 95.7883 76.7336 95.7883C77.7152 95.7883 78.7946 95.8528 79.7035 95.4489C79.9803 95.3259 80.6066 95.0459 80.7689 94.7701C81.1632 94.0997 82.2136 93.3539 81.7871 92.3942C81.3831 91.4851 81.6944 90.6225 80.6369 90.0937C79.3627 89.4566 78.3394 89 76.9033 89C76.3126 89 74.6999 89.1743 74.3577 89.7731C73.7299 90.8716 74.5732 92.3258 75.8473 92.215C76.4685 92.161 78.5802 92.1144 77.9592 91.3382C77.7114 91.0284 79.065 90.8668 79.1849 90.8668C79.7636 90.8668 81.4741 90.921 80.8914 91.9699C80.5113 92.6541 79.5495 93.2037 78.7701 93.2427C77.8789 93.2873 77.5027 92.0391 77.0918 91.4042C76.4296 90.3808 75.901 89.911 74.6122 90.1974C73.7775 90.3829 73.0917 91.0502 73.5091 91.885" stroke="#F99090" stroke-width="4" stroke-linecap="round" stroke-linejoin="round"/>
</svg>
