<svg width="118" height="118" viewBox="0 0 118 118" fill="none" xmlns="http://www.w3.org/2000/svg">
<path d="M24.8544 61.2156C23.5009 61.3837 22.3754 61.1887 21.478 60.6306C20.5805 60.0725 20.0273 58.9518 19.8183 57.2687L19.1201 51.6465L16.9077 51.9213L16.5618 49.1362L18.7742 48.8615L18.7347 45.3512L21.676 44.986L22.1059 48.4477L25.5937 48.0146L25.9395 50.7996L22.4517 51.2328L23.1531 56.8809C23.2307 57.5056 23.4147 57.9233 23.7052 58.1339C24.0108 58.325 24.4934 58.3796 25.1527 58.2977L26.7665 58.0973L27.1188 60.9344L24.8544 61.2156ZM30.0012 45.4322C29.3939 45.5076 28.868 45.3879 28.4237 45.073C27.9967 44.756 27.7487 44.3199 27.6797 43.7646C27.6108 43.2094 27.7456 42.7345 28.0843 42.34C28.4381 41.9261 28.9187 41.6814 29.5261 41.606C30.1334 41.5306 30.6506 41.6513 31.0776 41.9683C31.5198 42.2658 31.7753 42.6922 31.8443 43.2475C31.9132 43.8027 31.7708 44.2873 31.417 44.7013C31.0805 45.1131 30.6085 45.3567 30.0012 45.4322ZM30.1875 60.5533L28.5843 47.6432L31.9159 47.2295L33.5192 60.1396L30.1875 60.5533ZM37.5953 59.6334L36.3379 49.5083L34.5679 49.7281L34.2221 46.9431L35.992 46.7233L35.8045 45.2136C35.6106 43.6519 35.8631 42.4929 36.5621 41.7365C37.2784 40.978 38.3133 40.5147 39.6668 40.3466L41.0983 40.1689L41.4507 43.006L40.5397 43.1191C39.967 43.1902 39.5733 43.3536 39.3583 43.6094C39.1434 43.8651 39.0694 44.262 39.1362 44.7999L39.3236 46.3095L42.1087 45.9637L42.4546 48.7487L39.6695 49.0946L40.9269 59.2196L37.5953 59.6334ZM46.9492 58.4717L45.6918 48.3467L43.9219 48.5665L43.576 45.7814L45.346 45.5616L45.1585 44.052C44.9646 42.4903 45.2171 41.3313 45.916 40.5749C46.6323 39.8164 47.6672 39.3531 49.0207 39.185L50.4523 39.0072L50.8046 41.8443L49.8936 41.9575C49.321 42.0286 48.9272 42.192 48.7123 42.4477C48.4974 42.7035 48.4233 43.1003 48.4901 43.6383L48.6776 45.1479L51.4626 44.802L51.8085 47.5871L49.0235 47.9329L50.2809 58.058L46.9492 58.4717ZM59.6858 57.2072C58.5753 57.3451 57.6427 57.2847 56.8882 57.026C56.1315 56.75 55.543 56.3385 55.1227 55.7916C54.7024 55.2447 54.448 54.6156 54.3597 53.9041C54.211 52.7068 54.5588 51.6769 55.4032 50.8144C56.2475 49.9519 57.6067 49.4043 59.4808 49.1715L62.7604 48.7643L62.7216 48.4519C62.6117 47.567 62.2793 46.9475 61.7243 46.5935C61.1694 46.2396 60.5189 46.1089 59.7727 46.2016C59.096 46.2856 58.5265 46.5237 58.0642 46.9159C57.5998 47.2908 57.3456 47.7981 57.3017 48.4378L54.0482 48.8419C54.0186 47.8941 54.2296 47.0397 54.6813 46.2788C55.1504 45.5158 55.7961 44.8982 56.6185 44.426C57.4387 43.9366 58.3867 43.625 59.4626 43.4914C61.3019 43.263 62.8079 43.5429 63.9806 44.3311C65.1533 45.1193 65.8442 46.355 66.0532 48.0382L67.0391 55.9768L64.202 56.3292L63.6311 54.2857C63.3355 55.0272 62.8687 55.6666 62.2306 56.204C61.6099 56.7392 60.7617 57.0736 59.6858 57.2072ZM60.1174 54.5106C61.0718 54.3921 61.7705 53.9882 62.2135 53.2988C62.6738 52.6073 62.9163 51.7931 62.9409 50.8562L60.1038 51.2086C59.2188 51.3185 58.6059 51.562 58.2651 51.9391C57.9222 52.2988 57.7798 52.7129 57.838 53.1815C57.9004 53.6847 58.1398 54.0514 58.556 54.2816C58.9723 54.5119 59.4927 54.5882 60.1174 54.5106ZM70.2184 55.582L68.6152 42.6719L71.5564 42.3067L72.0882 44.4607C72.3925 43.6477 72.8897 42.9692 73.5798 42.4254C74.2873 41.8794 75.1529 41.5429 76.1767 41.4157C77.7731 41.2175 79.0763 41.5666 80.0862 42.4632C81.0962 43.3597 81.7218 44.7797 81.9632 46.7231L82.8682 54.0111L79.5366 54.4248L78.6703 47.4492C78.5324 46.3387 78.2012 45.5164 77.6768 44.9825C77.1524 44.4485 76.413 44.2408 75.4586 44.3593C74.5216 44.4757 73.7904 44.9013 73.2649 45.6361C72.7568 46.3687 72.576 47.325 72.7226 48.505L73.5501 55.1683L70.2184 55.582ZM87.9468 59.195L90.1223 52.238L89.3415 52.335L82.8214 40.9077L86.4393 40.4584L91.1854 49.093L93.8314 39.5404L97.3713 39.1008L91.4867 58.7554L87.9468 59.195ZM38.2986 84.0475C36.9798 84.2113 35.7816 84.0694 34.7041 83.6217C33.6265 83.1741 32.7292 82.475 32.0121 81.5245C31.3123 80.5718 30.8806 79.4361 30.7168 78.1173C30.553 76.7986 30.6939 75.5917 31.1394 74.4968C31.6022 73.3998 32.3013 72.5025 33.2366 71.8048C34.1719 71.1072 35.299 70.6765 36.6177 70.5128C38.2662 70.3081 39.7082 70.5695 40.9439 71.297C42.1774 72.0072 43.044 73.0977 43.5439 74.5686L40.03 75.005C39.7789 74.4018 39.3715 73.9591 38.8079 73.6767C38.2594 73.3748 37.6381 73.2669 36.944 73.3531C36.0244 73.4673 35.2866 73.9113 34.7308 74.6851C34.1749 75.459 33.9735 76.4619 34.1265 77.6939C34.2795 78.9259 34.7201 79.8491 35.4484 80.4635C36.1766 81.0778 37.0005 81.3279 37.9202 81.2137C38.6143 81.1275 39.1914 80.8796 39.6515 80.4701C40.129 80.0584 40.4146 79.5207 40.5084 78.8572L44.0222 78.4208C43.8909 79.9172 43.3163 81.1779 42.2983 82.2029C41.2803 83.228 39.947 83.8428 38.2986 84.0475ZM47.5417 82.5825L45.2144 63.8421L48.5461 63.4283L49.5158 71.2368C49.8612 70.4715 50.3736 69.8441 51.0528 69.3544C51.7472 68.8453 52.5717 68.5315 53.526 68.413C55.1224 68.2147 56.4169 68.565 57.4095 69.4636C58.4195 70.3602 59.0451 71.7802 59.2865 73.7236L60.1916 81.0116L56.8859 81.4221L56.0197 74.4465C55.8818 73.3359 55.5506 72.5137 55.0262 71.9797C54.5191 71.4436 53.7884 71.2348 52.834 71.3534C51.897 71.4697 51.1571 71.8964 50.6143 72.6333C50.0888 73.3682 49.8994 74.3255 50.0459 75.5055L50.8734 82.1688L47.5417 82.5825ZM67.867 80.3755C66.7565 80.5135 65.8239 80.4531 65.0694 80.1944C64.3127 79.9183 63.7242 79.5069 63.3039 78.96C62.8836 78.4131 62.6292 77.7839 62.5409 77.0725C62.3922 75.8752 62.74 74.8453 63.5844 73.9828C64.4288 73.1203 65.788 72.5726 67.662 72.3399L70.9416 71.9326L70.9028 71.6203C70.7929 70.7353 70.4605 70.1159 69.9056 69.7619C69.3506 69.4079 68.7001 69.2773 67.9539 69.3699C67.2772 69.454 66.7077 69.6921 66.2454 70.0843C65.781 70.4591 65.5268 70.9664 65.4829 71.6062L62.2294 72.0102C62.1998 71.0624 62.4108 70.2081 62.8626 69.4472C63.3316 68.6841 63.9774 68.0666 64.7997 67.5944C65.6199 67.1049 66.568 66.7934 67.6438 66.6598C69.4831 66.4313 70.9892 66.7112 72.1619 67.4995C73.3346 68.2877 74.0254 69.5234 74.2344 71.2065L75.2203 79.1452L72.3832 79.4975L71.8123 77.4541C71.5167 78.1956 71.0499 78.835 70.4119 79.3723C69.7912 79.9075 68.9429 80.2419 67.867 80.3755ZM68.2986 77.679C69.253 77.5604 69.9517 77.1565 70.3947 76.4672C70.855 75.7757 71.0975 74.9615 71.1221 74.0246L68.285 74.3769C67.4 74.4868 66.7872 74.7303 66.4463 75.1074C66.1034 75.4672 65.961 75.8813 66.0192 76.3498C66.0817 76.853 66.321 77.2198 66.7373 77.45C67.1535 77.6802 67.6739 77.7565 68.2986 77.679ZM78.3996 78.7504L76.7964 65.8403L79.7376 65.475L80.2694 67.6291C80.5737 66.816 81.0709 66.1376 81.761 65.5938C82.4685 65.0478 83.3341 64.7112 84.3579 64.5841C85.9543 64.3858 87.2575 64.735 88.2674 65.6315C89.2774 66.528 89.903 67.948 90.1444 69.8915L91.0495 77.1795L87.7178 77.5932L86.8515 70.6176C86.7136 69.507 86.3825 68.6848 85.858 68.1508C85.3336 67.6169 84.5942 67.4092 83.6398 67.5277C82.7028 67.6441 81.9716 68.0696 81.4461 68.8045C80.938 69.5371 80.7573 70.4934 80.9038 71.6734L81.7313 78.3366L78.3996 78.7504Z" fill="#5F3962"/>
<circle cx="58.8591" cy="58.8591" r="56.3591" stroke="#5F3962" stroke-width="5"/>
</svg>
