<svg width="308" height="36" viewBox="0 0 308 36" fill="none" xmlns="http://www.w3.org/2000/svg">
<path d="M0 31C18 31 24.2441 5 39.6997 5" stroke="#F99090" stroke-width="8.50811"/>
<path d="M77 31C59.7706 31 53.7939 5 39 5" stroke="#F99090" stroke-width="8.50811"/>
<path d="M77 31C95 31 101.244 5 116.7 5" stroke="#F99090" stroke-width="8.50811"/>
<path d="M154 31C136.771 31 130.794 5 116 5" stroke="#F99090" stroke-width="8.50811"/>
<path d="M154 31C172 31 178.244 5 193.7 5" stroke="#F99090" stroke-width="8.50811"/>
<path d="M231 31C213.771 31 207.794 5 193 5" stroke="#F99090" stroke-width="8.50811"/>
<path d="M231 31C249 31 255.244 5 270.7 5" stroke="#F99090" stroke-width="8.50811"/>
<path d="M308 31C290.771 31 284.794 5 270 5" stroke="#F99090" stroke-width="8.50811"/>
</svg>
